nColumns=28
nRows=29
DataType=double
version=3
OpenSimVersion=4.1
endheader
time	ground_force_1_vx	ground_force_1_vy	ground_force_1_vz	ground_force_1_px	ground_force_1_py	ground_force_1_pz	ground_force_1_mx	ground_force_1_my	ground_force_1_mz	ground_force_2_vx	ground_force_2_vy	ground_force_2_vz	ground_force_2_px	ground_force_2_py	ground_force_2_pz	ground_force_2_mx	ground_force_2_my	ground_force_2_mz	ground_force_3_vx	ground_force_3_vy	ground_force_3_vz	ground_force_3_px	ground_force_3_py	ground_force_3_pz	ground_force_3_mx	ground_force_3_my	ground_force_3_mz
2.385	-0.762849	-0.609746	0.152637	0.2075	2.30371e-17	-0.3015	6.60686e-17	-0.595093	-7.33508e-33	-27.266	249.467	-6.41478	0.49017	5.44198e-17	1.10081	4.50045e-16	-4.05365	-4.9965e-32	26.3761	396.087	4.8125	0.339885	3.77348e-17	1.32023	5.72688e-16	-5.15831	-6.35811e-32
2.39	-0.610228	-1.21986	-0.305106	0.303	3.36398e-17	0.1515	4.40457e-17	-0.396729	-4.89006e-33	-26.3493	248.552	-6.57	0.490156	5.44182e-17	1.10153	4.57435e-16	-4.12021	-5.07855e-32	26.6814	396.393	4.81352	0.339782	3.77234e-17	1.32037	5.51462e-16	-4.96712	-6.12245e-32
2.395	-0.610168	-1.8298	-0.762838	0.268667	2.9828e-17	0.1525	4.12223e-17	-0.371297	1.42109e-17	-26.9599	249.162	-6.56845	0.491085	5.45213e-17	1.10325	4.39806e-16	-3.96142	-4.88283e-32	26.8335	397.004	4.81561	0.338877	3.76229e-17	1.3202	5.48056e-16	-4.93645	-6.08465e-32
2.4	-0.762757	-1.82984	-0.305077	0.335833	3.7285e-17	0.101	4.68692e-17	-0.42216	2.84217e-17	-27.7215	247.941	-7.18156	0.491946	5.4617e-17	1.10384	4.41776e-16	-3.97916	-4.9047e-32	26.987	396.698	4.96696	0.339679	3.77119e-17	1.32029	5.5767e-16	-5.02305	7.27596e-15
2.405	-0.304998	-1.82988	-0.610259	0.267667	2.9717e-17	0.152	3.50107e-17	-0.315348	1.42109e-17	-27.5694	248.857	-6.72178	0.491979	5.46207e-17	1.10165	4.4458e-16	-4.00442	-4.93583e-32	26.8347	397.007	3.89972	0.338531	3.75845e-17	1.31996	5.8439e-16	-5.26372	-6.48803e-32
2.41	-0.610221	-1.21986	-0.305108	0.403	4.4742e-17	0.0765	4.74338e-17	-0.427246	-5.26621e-33	-27.7231	250.079	-7.17668	0.490549	5.44619e-17	1.10252	4.67478e-16	-4.21067	-5.19005e-32	26.8363	396.088	4.81174	0.339545	3.76971e-17	1.32046	5.63824e-16	-5.07848	-6.25971e-32
2.415	-0.762801	-1.21983	6.94714e-05	0.40375	4.48253e-17	0.15	3.81165e-17	-0.343323	-4.23178e-33	-28.1802	249.772	-6.87217	0.491444	5.45612e-17	1.10166	4.28163e-16	-3.85655	-4.75356e-32	26.9884	396.7	4.50869	0.338293	3.75581e-17	1.32028	5.57594e-16	-5.02236	-6.19054e-32
2.42	-0.610166	-1.82987	-0.305083	0.302	3.35287e-17	0.151	3.38813e-17	-0.305176	-3.76158e-33	-28.3327	250.076	-6.41372	0.490535	5.44603e-17	1.1029	4.28341e-16	-3.85815	-4.75554e-32	26.8376	395.783	4.65774	0.339653	3.7709e-17	1.32008	5.87859e-16	-5.29496	-6.52654e-32
2.425	-0.610136	-2.13488	0.000104644	0.258857	2.87389e-17	0.128571	3.19452e-17	-0.287737	-3.54663e-33	-28.3322	249.771	-6.56712	0.493641	5.48051e-17	1.10167	4.54816e-16	-4.09662	-5.04948e-32	26.837	396.393	4.65982	0.338744	3.76082e-17	1.32083	5.75242e-16	-5.18132	7.27596e-15
2.43	-0.610283	-0.304759	3.05657e-05	1.012	1.12355e-16	-0.9	9.65618e-17	-0.869751	-1.07205e-32	-28.4847	250.076	-6.10866	0.493278	5.47649e-17	1.10144	4.67516e-16	-4.21101	-5.19047e-32	27.1435	395.783	4.81016	0.337921	3.75168e-17	1.32054	5.88727e-16	-5.30278	-6.53618e-32
2.435	-0.457548	-2.1349	-0.305074	0.344143	3.82075e-17	0.129429	3.89635e-17	-0.350952	-4.32582e-33	-29.2483	250.99	-5.9537	0.492737	5.47048e-17	1.10073	4.25013e-16	-3.82817	-4.71859e-32	27.1447	395.172	4.80782	0.33883	3.76177e-17	1.32071	5.73664e-16	-5.1671	-6.36895e-32
2.44	-0.610264	-0.609825	3.98142e-05	0.706	7.83817e-17	-0.15	5.59042e-17	-0.50354	-6.20661e-33	-28.9438	251.906	-5.64653	0.492225	5.4648e-17	1.09931	4.18262e-16	-3.76737	-4.64364e-32	27.2981	394.867	4.80664	0.33894	3.76299e-17	1.32103	5.71382e-16	-5.14655	-6.34361e-32
2.445	-0.610156	-1.82986	-0.457673	0.335333	3.72295e-17	0.1015	5.0822e-17	-0.457764	2.84217e-17	-28.7896	250.38	-5.80287	0.495109	5.49681e-17	1.10158	4.51832e-16	-4.06974	-5.01634e-32	27.1468	394.256	4.65167	0.339501	3.76922e-17	1.32073	5.75839e-16	-5.1867	-6.3931e-32
2.45	-0.610157	-1.82987	-0.305087	0.335333	3.72295e-17	0.101	4.3481e-17	-0.391642	2.84217e-17	-29.4004	250.99	-5.95385	0.494923	5.49475e-17	1.09927	4.2803e-16	-3.85535	-4.75209e-32	27.1485	393.34	4.64824	0.339127	3.76507e-17	1.32122	5.85102e-16	-5.27013	-7.27596e-15
2.455	-0.610184	-1.52487	-0.3051	0.2824	3.13527e-17	0.0612	3.93023e-17	-0.354004	1.42109e-17	-28.9432	251.905	-5.34153	0.494953	5.49508e-17	1.09931	4.25386e-16	-3.83154	-4.72273e-32	27.3027	392.425	4.64487	0.340155	3.77648e-17	1.32031	5.787e-16	-5.21247	-7.27596e-15
2.46	-0.762763	-1.52483	0.152666	0.363	4.03011e-17	0.1194	4.30293e-17	-0.387573	-4.77721e-33	-29.2494	253.126	-5.03339	0.491351	5.45509e-17	1.09839	4.01941e-16	-3.62036	-4.46244e-32	27.3033	392.118	4.94885	0.340264	3.77769e-17	1.32017	5.81086e-16	-5.23396	7.27596e-15
2.465	-0.305017	-1.52493	6.96549e-05	0.3612	4.01013e-17	-4.01013e-17	4.06576e-17	-0.366211	-2.84217e-17	-29.4026	254.041	-4.57344	0.490838	5.44939e-17	1.09843	3.83455e-16	-3.45386	-4.25721e-32	27.3045	391.507	4.94656	0.340483	3.78012e-17	1.32057	5.74631e-16	-5.17582	-7.27596e-15
2.47	-0.762791	-1.21983	6.53302e-05	0.35375	3.92741e-17	0.075	4.44692e-17	-0.400543	-4.93708e-33	-29.2511	255.262	-4.26545	0.490526	5.44594e-17	1.09751	4.25373e-16	-3.83142	-4.72259e-32	27.0003	390.896	5.09675	0.340698	3.7825e-17	1.32004	5.76992e-16	-5.19708	-6.4059e-32
2.475	-0.610182	-1.52488	7.41428e-05	0.3624	4.02345e-17	0.06	4.67562e-17	-0.421143	-5.19098e-33	-29.7089	255.262	-4.5705	0.491054	5.45179e-17	1.09822	4.00594e-16	-3.60823	-4.44749e-32	26.6961	390.283	5.39954	0.340913	3.7849e-17	1.31998	5.70797e-16	-5.14128	-6.33712e-32
2.48	-0.915313	-1.82978	-0.45767	0.369667	4.10412e-17	0.1015	5.92923e-17	-0.534058	-6.58277e-33	-29.8615	255.566	-4.11198	0.490165	5.44192e-17	1.09872	3.88066e-16	-3.49538	-4.30839e-32	26.6973	389.673	5.24469	0.341134	3.78735e-17	1.31944	5.79086e-16	-5.21594	-7.27596e-15
2.485	-1.22057	-0.304406	5.11092e-05	1.224	1.35891e-16	-0.9	1.93124e-16	-1.7395	-2.1441e-32	-29.251	255.565	-3.65446	0.490179	5.44208e-17	1.09909	3.77573e-16	-3.40088	-4.19191e-32	26.393	389.061	5.5475	0.342057	3.7976e-17	1.31938	5.8019e-16	-5.22589	-6.44141e-32
2.49	-0.915368	-1.21977	6.85471e-05	0.4545	5.04596e-17	0.15	4.06576e-17	-0.366211	-4.5139e-33	-29.252	256.482	-3.95747	0.489679	5.43652e-17	1.09804	3.82919e-16	-3.44903	-4.25126e-32	26.6984	389.062	5.24241	0.342062	3.79765e-17	1.31914	5.77781e-16	-5.20419	-6.41466e-32
2.495	-0.457598	-1.5249	-0.305104	0.3218	3.5727e-17	0.1812	3.55754e-17	-0.320435	-3.94966e-33	-28.9469	256.483	-4.26276	0.48915	5.43066e-17	1.09839	4.13086e-16	-3.72075	-4.58617e-32	26.6985	389.063	4.93722	0.341356	3.78981e-17	1.32008	5.93335e-16	-5.34428	-6.58734e-32
2.5	-0.915411	-0.609679	4.78274e-05	0.609	6.76126e-17	-0.15	6.60686e-17	-0.595093	-7.33508e-33	-28.6423	257.094	-4.10883	0.487401	5.41124e-17	1.09722	4.02215e-16	-3.62283	-4.46548e-32	26.6994	388.452	5.08758	0.341578	3.79228e-17	1.31908	5.80178e-16	-5.22578	-7.27596e-15
2.505	-0.6102	-1.2198	-0.610286	0.353	3.91909e-17	0.153	4.06576e-17	-0.366211	-4.5139e-33	-28.3361	255.875	-4.87478	0.48878	5.42655e-17	1.09955	4.11379e-16	-3.70537	-4.56722e-32	26.2421	388.145	5.23889	0.34239	3.8013e-17	1.31916	5.95073e-16	-5.35994	7.27596e-15
2.51	9.47137e-05	-0.914973	3.93894e-05	0.4	4.44089e-17	-0.1	2.5411e-17	-0.228882	-2.82119e-33	-28.3354	255.263	-4.57105	0.49001	5.4402e-17	1.0993	4.03074e-16	-3.63057	-4.47502e-32	26.3928	389.368	5.09081	0.342652	3.8042e-17	1.31953	5.95221e-16	-5.36127	-6.60828e-32
2.515	-0.762812	-0.914793	0.152642	0.471667	5.23655e-17	-0.101	5.47748e-17	-0.493368	2.84217e-17	-28.3371	257.094	-4.10893	0.488477	5.42319e-17	1.09793	3.84168e-16	-3.46027	-4.26512e-32	26.2402	389.367	5.09077	0.341944	3.79634e-17	1.31976	5.99454e-16	-5.3994	-6.65528e-32
2.52	-0.915411	-0.60968	4.78928e-05	0.609	6.76126e-17	-0.15	7.6233e-17	-0.686646	-8.46356e-33	-28.0313	256.484	-4.11048	0.485421	5.38926e-17	1.09839	3.87657e-16	-3.4917	-4.30385e-32	26.0875	389.367	5.24331	0.342647	3.80415e-17	1.32	5.93073e-16	-5.34192	-6.58443e-32
2.525	-0.762785	-1.21979	-0.457697	0.35375	3.92741e-17	0.00225	5.84453e-17	-0.526428	-6.48873e-33	-27.1153	256.178	-3.34858	0.486856	5.40518e-17	1.09685	3.73015e-16	-3.35982	-4.14129e-32	26.2402	389.367	5.09079	0.342296	3.80025e-17	1.31976	5.99311e-16	-5.39811	7.27596e-15
